<?xml version="1.0" encoding="us-ascii" standalone="no"?><svg xmlns="http://www.w3.org/2000/svg" xmlns:xlink="http://www.w3.org/1999/xlink" contentStyleType="text/css" height="531px" preserveAspectRatio="none" style="width:1549px;height:531px;background:#FFFFFF;" version="1.1" viewBox="0 0 1549 531" width="1549px" zoomAndPan="magnify"><defs/><g><rect fill="#FFFFFF" height="341.5938" style="stroke:#181818;stroke-width:1.0;" width="10" x="28.5" y="91.2969"/><rect fill="#FFFFFF" height="320.4609" style="stroke:#181818;stroke-width:1.0;" width="10" x="316.5" y="112.4297"/><rect fill="#FFFFFF" height="262.1953" style="stroke:#181818;stroke-width:1.0;" width="10" x="588.5" y="141.5625"/><rect fill="#FFFFFF" height="29.1328" style="stroke:#181818;stroke-width:1.0;" width="10" x="840.5" y="170.6953"/><rect fill="#FFFFFF" height="145.6641" style="stroke:#181818;stroke-width:1.0;" width="10" x="976" y="228.9609"/><rect fill="#FFFFFF" height="87.3984" style="stroke:#181818;stroke-width:1.0;" width="10" x="1255" y="258.0938"/><rect fill="#FFFFFF" height="29.1328" style="stroke:#181818;stroke-width:1.0;" width="10" x="1496" y="287.2266"/><line style="stroke:#181818;stroke-width:0.5;stroke-dasharray:5.0,5.0;" x1="33" x2="33" y1="81.2969" y2="450.8906"/><line style="stroke:#181818;stroke-width:0.5;stroke-dasharray:5.0,5.0;" x1="321.5" x2="321.5" y1="81.2969" y2="450.8906"/><line style="stroke:#181818;stroke-width:0.5;stroke-dasharray:5.0,5.0;" x1="593" x2="593" y1="81.2969" y2="450.8906"/><line style="stroke:#181818;stroke-width:0.5;stroke-dasharray:5.0,5.0;" x1="845.5" x2="845.5" y1="81.2969" y2="450.8906"/><line style="stroke:#181818;stroke-width:0.5;stroke-dasharray:5.0,5.0;" x1="980.5" x2="980.5" y1="81.2969" y2="450.8906"/><line style="stroke:#181818;stroke-width:0.5;stroke-dasharray:5.0,5.0;" x1="1259.5" x2="1259.5" y1="81.2969" y2="450.8906"/><line style="stroke:#181818;stroke-width:0.5;stroke-dasharray:5.0,5.0;" x1="1501" x2="1501" y1="81.2969" y2="450.8906"/><text fill="#000000" font-family="sans-serif" font-size="14" lengthAdjust="spacing" textLength="51" x="5" y="77.9951">Usuario</text><ellipse cx="33.5" cy="13.5" fill="#E2E2F0" rx="8" ry="8" style="stroke:#181818;stroke-width:0.5;"/><path d="M33.5,21.5 L33.5,48.5 M20.5,29.5 L46.5,29.5 M33.5,48.5 L20.5,63.5 M33.5,48.5 L46.5,63.5 " fill="none" style="stroke:#181818;stroke-width:0.5;"/><text fill="#000000" font-family="sans-serif" font-size="14" lengthAdjust="spacing" textLength="51" x="5" y="462.8857">Usuario</text><ellipse cx="33.5" cy="474.6875" fill="#E2E2F0" rx="8" ry="8" style="stroke:#181818;stroke-width:0.5;"/><path d="M33.5,482.6875 L33.5,509.6875 M20.5,490.6875 L46.5,490.6875 M33.5,509.6875 L20.5,524.6875 M33.5,509.6875 L46.5,524.6875 " fill="none" style="stroke:#181818;stroke-width:0.5;"/><rect fill="#E2E2F0" height="30.2969" rx="2.5" ry="2.5" style="stroke:#181818;stroke-width:0.5;" width="70" x="286.5" y="50"/><text fill="#000000" font-family="sans-serif" font-size="14" lengthAdjust="spacing" textLength="56" x="293.5" y="69.9951">api.php</text><rect fill="#E2E2F0" height="30.2969" rx="2.5" ry="2.5" style="stroke:#181818;stroke-width:0.5;" width="70" x="286.5" y="449.8906"/><text fill="#000000" font-family="sans-serif" font-size="14" lengthAdjust="spacing" textLength="56" x="293.5" y="469.8857">api.php</text><rect fill="#E2E2F0" height="30.2969" rx="2.5" ry="2.5" style="stroke:#181818;stroke-width:0.5;" width="129" x="529" y="50"/><text fill="#000000" font-family="sans-serif" font-size="14" lengthAdjust="spacing" textLength="115" x="536" y="69.9951">GiphyController</text><rect fill="#E2E2F0" height="30.2969" rx="2.5" ry="2.5" style="stroke:#181818;stroke-width:0.5;" width="129" x="529" y="449.8906"/><text fill="#000000" font-family="sans-serif" font-size="14" lengthAdjust="spacing" textLength="115" x="536" y="469.8857">GiphyController</text><rect fill="#E2E2F0" height="30.2969" rx="2.5" ry="2.5" style="stroke:#181818;stroke-width:0.5;" width="142" x="774.5" y="50"/><text fill="#000000" font-family="sans-serif" font-size="14" lengthAdjust="spacing" textLength="128" x="781.5" y="69.9951">GiphyGetRequest</text><rect fill="#E2E2F0" height="30.2969" rx="2.5" ry="2.5" style="stroke:#181818;stroke-width:0.5;" width="142" x="774.5" y="449.8906"/><text fill="#000000" font-family="sans-serif" font-size="14" lengthAdjust="spacing" textLength="128" x="781.5" y="469.8857">GiphyGetRequest</text><rect fill="#E2E2F0" height="30.2969" rx="2.5" ry="2.5" style="stroke:#181818;stroke-width:0.5;" width="109" x="926.5" y="50"/><text fill="#000000" font-family="sans-serif" font-size="14" lengthAdjust="spacing" textLength="95" x="933.5" y="69.9951">GiphyService</text><rect fill="#E2E2F0" height="30.2969" rx="2.5" ry="2.5" style="stroke:#181818;stroke-width:0.5;" width="109" x="926.5" y="449.8906"/><text fill="#000000" font-family="sans-serif" font-size="14" lengthAdjust="spacing" textLength="95" x="933.5" y="469.8857">GiphyService</text><rect fill="#E2E2F0" height="30.2969" rx="2.5" ry="2.5" style="stroke:#181818;stroke-width:0.5;" width="135" x="1192.5" y="50"/><text fill="#000000" font-family="sans-serif" font-size="14" lengthAdjust="spacing" textLength="121" x="1199.5" y="69.9951">GiphyRepository</text><rect fill="#E2E2F0" height="30.2969" rx="2.5" ry="2.5" style="stroke:#181818;stroke-width:0.5;" width="135" x="1192.5" y="449.8906"/><text fill="#000000" font-family="sans-serif" font-size="14" lengthAdjust="spacing" textLength="121" x="1199.5" y="469.8857">GiphyRepository</text><rect fill="#E2E2F0" height="30.2969" rx="2.5" ry="2.5" style="stroke:#181818;stroke-width:0.5;" width="84" x="1459" y="50"/><text fill="#000000" font-family="sans-serif" font-size="14" lengthAdjust="spacing" textLength="70" x="1466" y="69.9951">API GIPHY</text><rect fill="#E2E2F0" height="30.2969" rx="2.5" ry="2.5" style="stroke:#181818;stroke-width:0.5;" width="84" x="1459" y="449.8906"/><text fill="#000000" font-family="sans-serif" font-size="14" lengthAdjust="spacing" textLength="70" x="1466" y="469.8857">API GIPHY</text><rect fill="#FFFFFF" height="341.5938" style="stroke:#181818;stroke-width:1.0;" width="10" x="28.5" y="91.2969"/><rect fill="#FFFFFF" height="320.4609" style="stroke:#181818;stroke-width:1.0;" width="10" x="316.5" y="112.4297"/><rect fill="#FFFFFF" height="262.1953" style="stroke:#181818;stroke-width:1.0;" width="10" x="588.5" y="141.5625"/><rect fill="#FFFFFF" height="29.1328" style="stroke:#181818;stroke-width:1.0;" width="10" x="840.5" y="170.6953"/><rect fill="#FFFFFF" height="145.6641" style="stroke:#181818;stroke-width:1.0;" width="10" x="976" y="228.9609"/><rect fill="#FFFFFF" height="87.3984" style="stroke:#181818;stroke-width:1.0;" width="10" x="1255" y="258.0938"/><rect fill="#FFFFFF" height="29.1328" style="stroke:#181818;stroke-width:1.0;" width="10" x="1496" y="287.2266"/><polygon fill="#181818" points="304.5,108.4297,314.5,112.4297,304.5,116.4297,308.5,112.4297" style="stroke:#181818;stroke-width:1.0;"/><line style="stroke:#181818;stroke-width:1.0;" x1="38.5" x2="310.5" y1="112.4297" y2="112.4297"/><text fill="#000000" font-family="sans-serif" font-size="13" lengthAdjust="spacing" textLength="259" x="45.5" y="107.3638">Buscar GIFs (GET api/giphy/gifs/{gif_id})</text><polygon fill="#181818" points="576.5,137.5625,586.5,141.5625,576.5,145.5625,580.5,141.5625" style="stroke:#181818;stroke-width:1.0;"/><line style="stroke:#181818;stroke-width:1.0;" x1="326.5" x2="582.5" y1="141.5625" y2="141.5625"/><text fill="#000000" font-family="sans-serif" font-size="13" lengthAdjust="spacing" textLength="243" x="333.5" y="136.4966">Llama a GiphyController@getGifById()</text><polygon fill="#181818" points="828.5,166.6953,838.5,170.6953,828.5,174.6953,832.5,170.6953" style="stroke:#181818;stroke-width:1.0;"/><line style="stroke:#181818;stroke-width:1.0;" x1="598.5" x2="834.5" y1="170.6953" y2="170.6953"/><text fill="#000000" font-family="sans-serif" font-size="13" lengthAdjust="spacing" textLength="223" x="605.5" y="165.6294">Valida datos con GiphyGetRequest</text><polygon fill="#181818" points="609.5,195.8281,599.5,199.8281,609.5,203.8281,605.5,199.8281" style="stroke:#181818;stroke-width:1.0;"/><line style="stroke:#181818;stroke-width:1.0;stroke-dasharray:2.0,2.0;" x1="603.5" x2="844.5" y1="199.8281" y2="199.8281"/><text fill="#000000" font-family="sans-serif" font-size="13" lengthAdjust="spacing" textLength="103" x="615.5" y="194.7622">Datos validados</text><polygon fill="#181818" points="964,224.9609,974,228.9609,964,232.9609,968,228.9609" style="stroke:#181818;stroke-width:1.0;"/><line style="stroke:#181818;stroke-width:1.0;" x1="598.5" x2="970" y1="228.9609" y2="228.9609"/><text fill="#000000" font-family="sans-serif" font-size="13" lengthAdjust="spacing" textLength="228" x="605.5" y="223.895">Llama a GiphyService@getGifById()</text><polygon fill="#181818" points="1243,254.0938,1253,258.0938,1243,262.0938,1247,258.0938" style="stroke:#181818;stroke-width:1.0;"/><line style="stroke:#181818;stroke-width:1.0;" x1="986" x2="1249" y1="258.0938" y2="258.0938"/><text fill="#000000" font-family="sans-serif" font-size="13" lengthAdjust="spacing" textLength="250" x="993" y="253.0278">Llama a GiphyRepository@getGifById()</text><polygon fill="#181818" points="1484,283.2266,1494,287.2266,1484,291.2266,1488,287.2266" style="stroke:#181818;stroke-width:1.0;"/><line style="stroke:#181818;stroke-width:1.0;" x1="1265" x2="1490" y1="287.2266" y2="287.2266"/><text fill="#000000" font-family="sans-serif" font-size="13" lengthAdjust="spacing" textLength="212" x="1272" y="282.1606">Realiza la consulta a la API GIPHY</text><polygon fill="#181818" points="1276,312.3594,1266,316.3594,1276,320.3594,1272,316.3594" style="stroke:#181818;stroke-width:1.0;"/><line style="stroke:#181818;stroke-width:1.0;stroke-dasharray:2.0,2.0;" x1="1270" x2="1500" y1="316.3594" y2="316.3594"/><text fill="#000000" font-family="sans-serif" font-size="13" lengthAdjust="spacing" textLength="180" x="1282" y="311.2935">Retorna respuesta de Giphy</text><polygon fill="#181818" points="997,341.4922,987,345.4922,997,349.4922,993,345.4922" style="stroke:#181818;stroke-width:1.0;"/><line style="stroke:#181818;stroke-width:1.0;stroke-dasharray:2.0,2.0;" x1="991" x2="1259" y1="345.4922" y2="345.4922"/><text fill="#000000" font-family="sans-serif" font-size="13" lengthAdjust="spacing" textLength="214" x="1003" y="340.4263">Retorna respuesta del repositorio</text><polygon fill="#181818" points="609.5,370.625,599.5,374.625,609.5,378.625,605.5,374.625" style="stroke:#181818;stroke-width:1.0;"/><line style="stroke:#181818;stroke-width:1.0;stroke-dasharray:2.0,2.0;" x1="603.5" x2="980" y1="374.625" y2="374.625"/><text fill="#000000" font-family="sans-serif" font-size="13" lengthAdjust="spacing" textLength="211" x="615.5" y="369.5591">Retorna respuesta al controlador</text><polygon fill="#181818" points="337.5,399.7578,327.5,403.7578,337.5,407.7578,333.5,403.7578" style="stroke:#181818;stroke-width:1.0;"/><line style="stroke:#181818;stroke-width:1.0;stroke-dasharray:2.0,2.0;" x1="331.5" x2="592.5" y1="403.7578" y2="403.7578"/><text fill="#000000" font-family="sans-serif" font-size="13" lengthAdjust="spacing" textLength="158" x="343.5" y="398.6919">Retorna respuesta al API</text><polygon fill="#181818" points="44.5,428.8906,34.5,432.8906,44.5,436.8906,40.5,432.8906" style="stroke:#181818;stroke-width:1.0;"/><line style="stroke:#181818;stroke-width:1.0;stroke-dasharray:2.0,2.0;" x1="38.5" x2="320.5" y1="432.8906" y2="432.8906"/><text fill="#000000" font-family="sans-serif" font-size="13" lengthAdjust="spacing" textLength="185" x="50.5" y="427.8247">Retorna respuesta al usuario</text><!--SRC=[TLDDJyCm3BttLrYSnc7itWDYuwDCuZ2D3uaJijfiYnIQaAIJ1kA_uuIaoRhkqDXEdv_iPmThApMycWurbuL2RNdD5ROMBb3nAxLJ5u06veeV_wousXrkPMkr589f3qhX2BPYTis-EcQinmP_1FZCz9xNpAE2Fu9QCoKDfzeFWIw6nzZvQWdLSlNuxb4-awwA0clBzsXPttcmCBrslPQmw4oDcd8V34og-nSWDMPRbq_dnin-wFpWpUzbed8QqUSeaX8bF0dyH40OA7QpPRRYcyLXsKmoaap3v3hA85W9RoXuWz2WbGPgsS90tiGLBuA5wQ2oEq-nztoDD4N3JbAFQmZZ6FGKRiyq54SOx7yhSLW3flJZ35asvkGwoZZPaY3KppU2G2UEwOHrz1Jrgv3e-ds8ZfSeBs_DoBO8cXdb127TGrgkLi-J5vNhDKOZA0feshyZxVicUz46aplbG-7QTG0QfSxfuW3oKSOj7-LnZMJvsKRwxQRSy5ZEv7VXIMKSxcbaOSZ_0m00]--></g></svg>