<?xml version="1.0" encoding="UTF-8" standalone="no"?><svg xmlns="http://www.w3.org/2000/svg" xmlns:xlink="http://www.w3.org/1999/xlink" contentStyleType="text/css" height="531px" preserveAspectRatio="none" style="width:2098px;height:531px;background:#FFFFFF;" version="1.1" viewBox="0 0 2098 531" width="2098px" zoomAndPan="magnify"><defs/><g><rect fill="#FFFFFF" height="341.5938" style="stroke:#181818;stroke-width:1.0;" width="10" x="29" y="91.2969"/><rect fill="#FFFFFF" height="320.4609" style="stroke:#181818;stroke-width:1.0;" width="10" x="373" y="112.4297"/><rect fill="#FFFFFF" height="262.1953" style="stroke:#181818;stroke-width:1.0;" width="10" x="804" y="141.5625"/><rect fill="#FFFFFF" height="29.1328" style="stroke:#181818;stroke-width:1.0;" width="10" x="1161" y="170.6953"/><rect fill="#FFFFFF" height="145.6641" style="stroke:#181818;stroke-width:1.0;" width="10" x="1399" y="228.9609"/><rect fill="#FFFFFF" height="87.3984" style="stroke:#181818;stroke-width:1.0;" width="10" x="1748" y="258.0938"/><rect fill="#FFFFFF" height="29.1328" style="stroke:#181818;stroke-width:1.0;" width="10" x="2070" y="287.2266"/><line style="stroke:#181818;stroke-width:0.5;stroke-dasharray:5.0,5.0;" x1="34" x2="34" y1="81.2969" y2="450.8906"/><line style="stroke:#181818;stroke-width:0.5;stroke-dasharray:5.0,5.0;" x1="377.5" x2="377.5" y1="81.2969" y2="450.8906"/><line style="stroke:#181818;stroke-width:0.5;stroke-dasharray:5.0,5.0;" x1="809" x2="809" y1="81.2969" y2="450.8906"/><line style="stroke:#181818;stroke-width:0.5;stroke-dasharray:5.0,5.0;" x1="1165.5" x2="1165.5" y1="81.2969" y2="450.8906"/><line style="stroke:#181818;stroke-width:0.5;stroke-dasharray:5.0,5.0;" x1="1403.5" x2="1403.5" y1="81.2969" y2="450.8906"/><line style="stroke:#181818;stroke-width:0.5;stroke-dasharray:5.0,5.0;" x1="1752.5" x2="1752.5" y1="81.2969" y2="450.8906"/><line style="stroke:#181818;stroke-width:0.5;stroke-dasharray:5.0,5.0;" x1="2074.5" x2="2074.5" y1="81.2969" y2="450.8906"/><text fill="#000000" font-family="sans-serif" font-size="14" lengthAdjust="spacing" textLength="52" x="5" y="77.9951">Usuario</text><ellipse cx="34" cy="13.5" fill="#E2E2F0" rx="8" ry="8" style="stroke:#181818;stroke-width:0.5;"/><path d="M34,21.5 L34,48.5 M21,29.5 L47,29.5 M34,48.5 L21,63.5 M34,48.5 L47,63.5 " fill="none" style="stroke:#181818;stroke-width:0.5;"/><text fill="#000000" font-family="sans-serif" font-size="14" lengthAdjust="spacing" textLength="52" x="5" y="462.8857">Usuario</text><ellipse cx="34" cy="474.6875" fill="#E2E2F0" rx="8" ry="8" style="stroke:#181818;stroke-width:0.5;"/><path d="M34,482.6875 L34,509.6875 M21,490.6875 L47,490.6875 M34,509.6875 L21,524.6875 M34,509.6875 L47,524.6875 " fill="none" style="stroke:#181818;stroke-width:0.5;"/><rect fill="#E2E2F0" height="30.2969" rx="2.5" ry="2.5" style="stroke:#181818;stroke-width:0.5;" width="65" x="345.5" y="50"/><text fill="#000000" font-family="sans-serif" font-size="14" lengthAdjust="spacing" textLength="51" x="352.5" y="69.9951">api.php</text><rect fill="#E2E2F0" height="30.2969" rx="2.5" ry="2.5" style="stroke:#181818;stroke-width:0.5;" width="65" x="345.5" y="449.8906"/><text fill="#000000" font-family="sans-serif" font-size="14" lengthAdjust="spacing" textLength="51" x="352.5" y="469.8857">api.php</text><rect fill="#E2E2F0" height="30.2969" rx="2.5" ry="2.5" style="stroke:#181818;stroke-width:0.5;" width="224" x="697" y="50"/><text fill="#000000" font-family="sans-serif" font-size="14" lengthAdjust="spacing" textLength="210" x="704" y="69.9951">UserFavoriteGiphyGifController</text><rect fill="#E2E2F0" height="30.2969" rx="2.5" ry="2.5" style="stroke:#181818;stroke-width:0.5;" width="224" x="697" y="449.8906"/><text fill="#000000" font-family="sans-serif" font-size="14" lengthAdjust="spacing" textLength="210" x="704" y="469.8857">UserFavoriteGiphyGifController</text><rect fill="#E2E2F0" height="30.2969" rx="2.5" ry="2.5" style="stroke:#181818;stroke-width:0.5;" width="249" x="1041.5" y="50"/><text fill="#000000" font-family="sans-serif" font-size="14" lengthAdjust="spacing" textLength="235" x="1048.5" y="69.9951">UserFavoriteGiphyGifSaveRequest</text><rect fill="#E2E2F0" height="30.2969" rx="2.5" ry="2.5" style="stroke:#181818;stroke-width:0.5;" width="249" x="1041.5" y="449.8906"/><text fill="#000000" font-family="sans-serif" font-size="14" lengthAdjust="spacing" textLength="235" x="1048.5" y="469.8857">UserFavoriteGiphyGifSaveRequest</text><rect fill="#E2E2F0" height="30.2969" rx="2.5" ry="2.5" style="stroke:#181818;stroke-width:0.5;" width="207" x="1300.5" y="50"/><text fill="#000000" font-family="sans-serif" font-size="14" lengthAdjust="spacing" textLength="193" x="1307.5" y="69.9951">UserFavoriteGiphyGifService</text><rect fill="#E2E2F0" height="30.2969" rx="2.5" ry="2.5" style="stroke:#181818;stroke-width:0.5;" width="207" x="1300.5" y="449.8906"/><text fill="#000000" font-family="sans-serif" font-size="14" lengthAdjust="spacing" textLength="193" x="1307.5" y="469.8857">UserFavoriteGiphyGifService</text><rect fill="#E2E2F0" height="30.2969" rx="2.5" ry="2.5" style="stroke:#181818;stroke-width:0.5;" width="231" x="1637.5" y="50"/><text fill="#000000" font-family="sans-serif" font-size="14" lengthAdjust="spacing" textLength="217" x="1644.5" y="69.9951">UserFavoriteGiphyGifRepository</text><rect fill="#E2E2F0" height="30.2969" rx="2.5" ry="2.5" style="stroke:#181818;stroke-width:0.5;" width="231" x="1637.5" y="449.8906"/><text fill="#000000" font-family="sans-serif" font-size="14" lengthAdjust="spacing" textLength="217" x="1644.5" y="469.8857">UserFavoriteGiphyGifRepository</text><rect fill="#E2E2F0" height="30.2969" rx="2.5" ry="2.5" style="stroke:#181818;stroke-width:0.5;" width="35" x="2057.5" y="50"/><text fill="#000000" font-family="sans-serif" font-size="14" lengthAdjust="spacing" textLength="21" x="2064.5" y="69.9951">DB</text><rect fill="#E2E2F0" height="30.2969" rx="2.5" ry="2.5" style="stroke:#181818;stroke-width:0.5;" width="35" x="2057.5" y="449.8906"/><text fill="#000000" font-family="sans-serif" font-size="14" lengthAdjust="spacing" textLength="21" x="2064.5" y="469.8857">DB</text><rect fill="#FFFFFF" height="341.5938" style="stroke:#181818;stroke-width:1.0;" width="10" x="29" y="91.2969"/><rect fill="#FFFFFF" height="320.4609" style="stroke:#181818;stroke-width:1.0;" width="10" x="373" y="112.4297"/><rect fill="#FFFFFF" height="262.1953" style="stroke:#181818;stroke-width:1.0;" width="10" x="804" y="141.5625"/><rect fill="#FFFFFF" height="29.1328" style="stroke:#181818;stroke-width:1.0;" width="10" x="1161" y="170.6953"/><rect fill="#FFFFFF" height="145.6641" style="stroke:#181818;stroke-width:1.0;" width="10" x="1399" y="228.9609"/><rect fill="#FFFFFF" height="87.3984" style="stroke:#181818;stroke-width:1.0;" width="10" x="1748" y="258.0938"/><rect fill="#FFFFFF" height="29.1328" style="stroke:#181818;stroke-width:1.0;" width="10" x="2070" y="287.2266"/><polygon fill="#181818" points="361,108.4297,371,112.4297,361,116.4297,365,112.4297" style="stroke:#181818;stroke-width:1.0;"/><line style="stroke:#181818;stroke-width:1.0;" x1="39" x2="367" y1="112.4297" y2="112.4297"/><text fill="#000000" font-family="sans-serif" font-size="13" lengthAdjust="spacing" textLength="315" x="46" y="107.3638">Guardar GIF favorito (POST api/giphy/gifs/favorite)</text><polygon fill="#181818" points="792,137.5625,802,141.5625,792,145.5625,796,141.5625" style="stroke:#181818;stroke-width:1.0;"/><line style="stroke:#181818;stroke-width:1.0;" x1="383" x2="798" y1="141.5625" y2="141.5625"/><text fill="#000000" font-family="sans-serif" font-size="13" lengthAdjust="spacing" textLength="402" x="390" y="136.4966">Llama a UserFavoriteGiphyGifController@saveUserFavoriteGif()</text><polygon fill="#181818" points="1149,166.6953,1159,170.6953,1149,174.6953,1153,170.6953" style="stroke:#181818;stroke-width:1.0;"/><line style="stroke:#181818;stroke-width:1.0;" x1="814" x2="1155" y1="170.6953" y2="170.6953"/><text fill="#000000" font-family="sans-serif" font-size="13" lengthAdjust="spacing" textLength="328" x="821" y="165.6294">Valida datos con UserFavoriteGiphyGifSaveRequest</text><polygon fill="#181818" points="825,195.8281,815,199.8281,825,203.8281,821,199.8281" style="stroke:#181818;stroke-width:1.0;"/><line style="stroke:#181818;stroke-width:1.0;stroke-dasharray:2.0,2.0;" x1="819" x2="1165" y1="199.8281" y2="199.8281"/><text fill="#000000" font-family="sans-serif" font-size="13" lengthAdjust="spacing" textLength="102" x="831" y="194.7622">Datos validados</text><polygon fill="#181818" points="1387,224.9609,1397,228.9609,1387,232.9609,1391,228.9609" style="stroke:#181818;stroke-width:1.0;"/><line style="stroke:#181818;stroke-width:1.0;" x1="814" x2="1393" y1="228.9609" y2="228.9609"/><text fill="#000000" font-family="sans-serif" font-size="13" lengthAdjust="spacing" textLength="387" x="821" y="223.895">Llama a UserFavoriteGiphyGifService@saveUserFavoriteGif()</text><polygon fill="#181818" points="1736,254.0938,1746,258.0938,1736,262.0938,1740,258.0938" style="stroke:#181818;stroke-width:1.0;"/><line style="stroke:#181818;stroke-width:1.0;" x1="1409" x2="1742" y1="258.0938" y2="258.0938"/><text fill="#000000" font-family="sans-serif" font-size="13" lengthAdjust="spacing" textLength="320" x="1416" y="253.0278">Llama a UserFavoriteGiphyGifRepository@create()</text><polygon fill="#181818" points="2058,283.2266,2068,287.2266,2058,291.2266,2062,287.2266" style="stroke:#181818;stroke-width:1.0;"/><line style="stroke:#181818;stroke-width:1.0;" x1="1758" x2="2064" y1="287.2266" y2="287.2266"/><text fill="#000000" font-family="sans-serif" font-size="13" lengthAdjust="spacing" textLength="102" x="1765" y="282.1606">guardar favorito</text><polygon fill="#181818" points="1769,312.3594,1759,316.3594,1769,320.3594,1765,316.3594" style="stroke:#181818;stroke-width:1.0;"/><line style="stroke:#181818;stroke-width:1.0;stroke-dasharray:2.0,2.0;" x1="1763" x2="2074" y1="316.3594" y2="316.3594"/><text fill="#000000" font-family="sans-serif" font-size="13" lengthAdjust="spacing" textLength="288" x="1775" y="311.2935">Retorna modelo UserFavoriteGiphyGif creado</text><polygon fill="#181818" points="1420,341.4922,1410,345.4922,1420,349.4922,1416,345.4922" style="stroke:#181818;stroke-width:1.0;"/><line style="stroke:#181818;stroke-width:1.0;stroke-dasharray:2.0,2.0;" x1="1414" x2="1752" y1="345.4922" y2="345.4922"/><text fill="#000000" font-family="sans-serif" font-size="13" lengthAdjust="spacing" textLength="213" x="1426" y="340.4263">Retorna respuesta del repositorio</text><polygon fill="#181818" points="825,370.625,815,374.625,825,378.625,821,374.625" style="stroke:#181818;stroke-width:1.0;"/><line style="stroke:#181818;stroke-width:1.0;stroke-dasharray:2.0,2.0;" x1="819" x2="1403" y1="374.625" y2="374.625"/><text fill="#000000" font-family="sans-serif" font-size="13" lengthAdjust="spacing" textLength="234" x="831" y="369.5591">Retorna true o exepción al Controller</text><polygon fill="#181818" points="394,399.7578,384,403.7578,394,407.7578,390,403.7578" style="stroke:#181818;stroke-width:1.0;"/><line style="stroke:#181818;stroke-width:1.0;stroke-dasharray:2.0,2.0;" x1="388" x2="808" y1="403.7578" y2="403.7578"/><text fill="#000000" font-family="sans-serif" font-size="13" lengthAdjust="spacing" textLength="157" x="400" y="398.6919">Retorna respuesta al API</text><polygon fill="#181818" points="45,428.8906,35,432.8906,45,436.8906,41,432.8906" style="stroke:#181818;stroke-width:1.0;"/><line style="stroke:#181818;stroke-width:1.0;stroke-dasharray:2.0,2.0;" x1="39" x2="377" y1="432.8906" y2="432.8906"/><text fill="#000000" font-family="sans-serif" font-size="13" lengthAdjust="spacing" textLength="184" x="51" y="427.8247">Retorna respuesta al usuario</text><!--MD5=[6fdacacfd4d6d930e9537f770531ef50]
@startuml
actor Usuario
participant "api.php" as Api
participant "UserFavoriteGiphyGifController" as Controller
participant "UserFavoriteGiphyGifSaveRequest" as Request
participant "UserFavoriteGiphyGifService" as Service
participant "UserFavoriteGiphyGifRepository" as Repository
participant "DB" as DB

activate Usuario
Usuario -> Api: Guardar GIF favorito (POST api/giphy/gifs/favorite)
activate Api
Api -> Controller: Llama a UserFavoriteGiphyGifController@saveUserFavoriteGif()
activate Controller
Controller -> Request: Valida datos con UserFavoriteGiphyGifSaveRequest
activate Request
Request - -> Controller: Datos validados
deactivate Request
Controller -> Service: Llama a UserFavoriteGiphyGifService@saveUserFavoriteGif()
activate Service
Service -> Repository: Llama a UserFavoriteGiphyGifRepository@create()
activate Repository
Repository -> DB: guardar favorito
activate DB
DB - -> Repository: Retorna modelo UserFavoriteGiphyGif creado
deactivate DB
Repository - -> Service: Retorna respuesta del repositorio
deactivate Repository
Service - -> Controller: Retorna true o exepción al Controller
deactivate Service
Controller - -> Api: Retorna respuesta al API
deactivate Controller
Api - -> Usuario: Retorna respuesta al usuario
deactivate Api
deactivate Usuario
@enduml

PlantUML version 1.2022.7(Mon Aug 22 17:01:30 UTC 2022)
(GPL source distribution)
Java Runtime: OpenJDK Runtime Environment
JVM: OpenJDK 64-Bit Server VM
Default Encoding: UTF-8
Language: en
Country: null
--></g></svg>